<svg version="1.1" id="Layer_1" xmlns="http://www.w3.org/2000/svg" xmlns:xlink="http://www.w3.org/1999/xlink" x="0px" y="0px"
	 width="100%" viewBox="0 0 1024 1024" enable-background="new 0 0 1024 1024" xml:space="preserve">
<path fill="#000000" opacity="1.000000" stroke="none" 
	d="
M846.577698,619.524658 
	C802.690002,598.201233 761.320801,573.334778 721.411926,545.977539 
	C717.568665,543.343018 713.539551,540.979614 709.595886,538.491638 
	C700.412170,532.697815 691.515686,533.521851 683.174072,540.067932 
	C675.185364,546.336975 667.160156,552.608582 659.645569,559.424438 
	C626.292847,589.676025 587.378357,609.666199 544.549072,622.611389 
	C535.462646,625.357849 526.384216,628.095032 517.047668,629.878418 
	C516.080261,630.063171 515.116089,630.495789 513.969360,629.585083 
	C514.314758,627.099731 516.766296,627.171204 518.323547,626.458313 
	C539.674744,616.683105 561.384705,607.643799 581.601685,595.554565 
	C588.478577,591.442383 595.101135,586.963623 600.482239,580.901123 
	C607.913086,572.529358 608.406372,563.668701 601.812134,554.589294 
	C596.478577,547.245789 589.013855,542.520081 581.208008,538.296997 
	C568.767639,531.566528 555.561768,526.239807 544.030701,517.844604 
	C526.439575,505.037231 513.458008,489.206329 510.192230,466.882874 
	C508.587036,455.910095 511.594971,445.397980 513.201294,434.738251 
	C514.241272,427.836456 515.519043,420.958954 513.794434,413.933502 
	C512.986816,410.643738 511.858490,407.567078 509.969910,404.782745 
	C505.020081,397.485199 499.944763,396.533966 492.810608,401.762390 
	C478.692139,412.109467 467.693542,425.547241 456.555389,438.813416 
	C439.741943,458.839172 423.484161,479.319031 405.005280,497.921265 
	C371.508026,531.642212 333.535004,559.253906 292.006500,582.160461 
	C249.177429,605.784485 204.687119,625.700989 158.549545,641.911377 
	C144.260513,646.931763 129.823792,651.539001 114.986984,654.743896 
	C112.896049,655.195496 110.817886,655.785706 108.231773,654.934509 
	C109.673523,652.857544 111.833908,652.481628 113.689644,651.693604 
	C154.165070,634.507385 194.774719,617.627502 233.889313,597.418213 
	C275.406555,575.967590 315.807587,552.751160 352.321289,523.316528 
	C381.648987,499.674713 407.325500,472.477264 430.792419,443.081360 
	C445.554382,424.589752 460.597778,406.311859 478.563690,390.729065 
	C484.631256,385.466339 491.170410,380.905579 498.554718,377.625305 
	C513.361206,371.047943 525.725037,374.496826 534.549438,387.996887 
	C537.365112,392.304504 539.801514,396.894348 542.057251,401.527496 
	C550.176636,418.203827 560.720581,433.086426 574.728699,445.295929 
	C595.272461,463.201965 613.325012,483.462311 631.176453,503.948883 
	C640.536133,514.690186 651.355835,523.772827 663.583801,531.177063 
	C666.835083,533.145752 669.284180,533.322021 672.437134,530.727234 
	C680.051147,524.461243 688.536316,520.038452 698.864502,520.689514 
	C707.861389,521.256592 715.504761,525.241455 722.594360,530.364746 
	C737.582397,541.195923 752.460938,552.173462 767.803040,562.511597 
	C813.636780,593.396057 861.025085,621.417664 912.624939,641.763916 
	C914.196960,642.383850 916.318848,642.441101 917.281433,645.636902 
	C892.333984,639.798584 869.487366,630.126892 846.577698,619.524658 
M549.455200,440.015778 
	C546.310486,436.135834 543.059998,432.336060 540.042847,428.359344 
	C533.670715,419.960785 529.108704,410.477753 524.047180,401.292450 
	C520.836243,395.465515 518.122986,393.233582 513.510986,392.148041 
	C519.697205,397.358429 522.610962,404.332764 524.313965,411.927429 
	C526.950134,423.682953 524.161682,435.086365 521.814453,446.481354 
	C519.667358,456.904968 518.911011,467.173767 522.843323,477.424957 
	C529.775513,495.496429 543.218323,507.526672 559.329285,517.045776 
	C569.791565,523.227417 581.047180,527.999451 591.216797,534.719482 
	C597.931885,539.156738 604.093018,544.197754 608.606201,550.997559 
	C615.379944,561.203369 615.110168,572.237305 607.869873,582.108215 
	C607.230408,582.980042 606.155945,583.690735 606.441711,585.404663 
	C627.842163,572.531067 645.220459,555.176575 663.542236,538.202148 
	C662.294434,537.457336 661.642273,536.989563 660.928223,536.653381 
	C647.983337,530.559814 636.713989,522.109253 626.287598,512.392212 
	C613.245544,500.237488 601.734253,486.564972 588.358337,474.726349 
	C575.521851,463.365173 561.473511,453.359192 549.455200,440.015778 
z"/>
<path fill="#000000" opacity="1.000000" stroke="none" 
	d="
M363.929321,565.000061 
	C331.585815,585.982117 296.697479,600.967834 261.437225,615.150757 
	C247.073914,620.928223 232.506027,626.197937 218.016632,631.659973 
	C216.536209,632.218018 215.056778,633.196411 213.052094,632.351990 
	C214.081055,630.194458 216.178085,629.999329 217.898285,629.282410 
	C264.984741,609.659180 311.555023,588.962280 354.989594,561.933594 
	C378.000549,547.614258 399.029785,530.778748 417.647766,511.006470 
	C419.526764,509.011017 421.189240,506.684814 424.175385,505.898499 
	C409.469025,530.871521 387.846039,548.841064 363.929321,565.000061 
z"/>
<path fill="#000000" opacity="1.000000" stroke="none" 
	d="
M553.678711,476.342133 
	C542.893555,469.306366 534.485596,460.775940 531.471985,448.146179 
	C530.555420,444.305054 529.315125,440.350067 530.376160,436.269470 
	C531.984558,436.447235 532.090088,437.316162 532.282410,438.114685 
	C535.821289,452.805725 544.038452,464.004761 557.120056,471.656799 
	C560.563049,473.670776 563.902832,475.891937 567.118835,478.251343 
	C568.913086,479.567688 570.181030,481.564453 569.257324,483.918884 
	C568.394226,486.119049 566.222473,486.243866 564.179077,486.300201 
	C563.013184,486.332367 561.845337,486.313629 560.680664,486.367340 
	C557.306519,486.522858 556.581604,488.259674 558.166016,490.998657 
	C560.110291,494.359711 562.902527,496.977936 565.950500,499.358185 
	C575.033020,506.451080 585.169800,511.964264 594.590271,518.551331 
	C605.102417,525.901733 614.415344,534.315491 619.811523,546.297791 
	C621.448669,549.933228 621.716431,551.280151 621.664978,554.765503 
	C620.858887,555.023193 620.373169,554.513000 620.166687,553.913086 
	C616.138855,542.208984 607.803284,533.975708 598.316772,526.645874 
	C587.350891,518.172974 574.892578,511.950500 563.784668,503.691650 
	C560.284973,501.089569 557.072876,498.217560 554.564148,494.619568 
	C549.523376,487.390015 550.847168,483.329102 559.888062,480.336456 
	C557.667053,478.899750 555.826904,477.709442 553.678711,476.342133 
z"/>
</svg>